<svg xmlns="http://www.w3.org/2000/svg" viewBox="0 0 1024 1024">
  <!-- Body with screen cutout (evenodd fill rule) -->
  <path fill="#0097CB" fill-rule="evenodd" d="M 142 262 L 882 262 A 80 80 0 0 1 962 342 L 962 822 A 80 80 0 0 1 882 902 L 142 902 A 80 80 0 0 1 62 822 L 62 342 A 80 80 0 0 1 142 262 Z M 185 406 L 839 406 A 48 48 0 0 1 887 454 L 887 694 A 48 48 0 0 1 839 742 L 185 742 A 48 48 0 0 1 137 694 L 137 454 A 48 48 0 0 1 185 406 Z"/>
  <!-- Antennas as paths (no transform, compatible with ImageMagick) -->
  <path fill="#0097CB" d="M 234.7 179.6 A 56 56 0 0 1 268.2 107.8 L 268.2 107.8 A 56 56 0 0 1 339.9 141.3 L 367.3 216.4 A 56 56 0 0 1 333.8 288.2 L 333.8 288.2 A 56 56 0 0 1 262.1 254.7 L 234.7 179.6 Z"/>
  <path fill="#0097CB" d="M 684.1 141.3 A 56 56 0 0 1 755.8 107.8 L 755.8 107.8 A 56 56 0 0 1 789.3 179.6 L 761.9 254.7 A 56 56 0 0 1 690.2 288.2 L 690.2 288.2 A 56 56 0 0 1 656.7 216.4 L 684.1 141.3 Z"/>
  <!-- Eyes -->
  <rect x="304" y="454" width="110" height="240" rx="40" ry="40" fill="#0097CB"/>
  <rect x="610" y="454" width="110" height="240" rx="40" ry="40" fill="#0097CB"/>
</svg>
