<svg xmlns="http://www.w3.org/2000/svg" viewBox="0 0 1024 1024">
  <!-- Body with screen cutout (evenodd fill rule) -->
  <path fill="#0097CB" fill-rule="evenodd" d="M 182 262 L 921 262 A 80 80 0 0 1 1001 342 L 1001 822 A 80 80 0 0 1 921 902 L 182 902 A 80 80 0 0 1 102 822 L 102 342 A 80 80 0 0 1 182 262 Z M 209 406 L 862 406 A 48 48 0 0 1 910 454 L 910 694 A 48 48 0 0 1 862 742 L 209 742 A 48 48 0 0 1 161 694 L 161 454 A 48 48 0 0 1 209 406 Z"/>
  <!-- Antennas as paths (no transform, compatible with ImageMagick) -->
  <path fill="#0097CB" d="M 229.7 179.6 A 56 56 0 0 1 263.2 107.8 L 263.2 107.8 A 56 56 0 0 1 334.9 141.3 L 362.3 216.4 A 56 56 0 0 1 328.8 288.2 L 328.8 288.2 A 56 56 0 0 1 257.1 254.7 L 229.7 179.6 Z"/>
  <path fill="#0097CB" d="M 679.1 141.3 A 56 56 0 0 1 750.8 107.8 L 750.8 107.8 A 56 56 0 0 1 784.3 179.6 L 756.9 254.7 A 56 56 0 0 1 685.2 288.2 L 685.2 288.2 A 56 56 0 0 1 651.7 216.4 L 679.1 141.3 Z"/>
  <!-- Eyes -->
  <rect x="302" y="470" width="110" height="240" rx="40" ry="40" fill="#0097CB"/>
  <rect x="609" y="470" width="110" height="240" rx="40" ry="40" fill="#0097CB"/>
</svg>